<?xml version="1.0" standalone="no"?>
<svg xmlns="http://www.w3.org/2000/svg" viewBox="0 0 167.904 32.585" width="167.904" height="32.585"><g fill="#000000" color="#000000" transform="translate(0, 0) scale(0.453125)"><svg width="64.0" height="64.0" x="0.0" y="0.0" viewBox="0 0 64 64"><path d="M51.37,37.187l-0.566,0.107c-0.366,0.069-0.74,0.121-1.116,0.157c-0.277,0.025-0.557,0.034-0.838,0.042  c-0.129,0.003-0.256,0.018-0.386,0.018v0.002c-0.002,0-0.003,0-0.005,0c-2.225,0-4.431-0.554-6.379-1.603c0,0,3.801,3.74,6.379,3.74  c0.117,0,0.229-0.015,0.345-0.018c0.342-0.007,0.682-0.015,1.02-0.045l-1.36,16.052h-6.205l-0.637-4.575l-1.633,4.575h-6.92  L32,50.132l-1.068,5.507h-6.92l-1.634-4.576l-0.637,4.576h-6.203l-1.362-16.05c0.407,0.035,0.812,0.05,1.214,0.054  c0.051,0,0.1,0.008,0.15,0.008c0.064,0,0.13-0.011,0.194-0.012c0.532-0.007,1.063-0.036,1.588-0.099  c0.175-0.02,0.345-0.052,0.518-0.079c0.146-0.022,0.29-0.039,0.434-0.065l-0.003-0.015c1.628-0.289,3.647-3.47,3.647-3.47  c-1.324,0.713-2.773,1.179-4.266,1.415c-0.233,0.04-0.471,0.074-0.707,0.1c-0.459,0.048-0.92,0.085-1.383,0.085  c-0.096,0-0.191-0.01-0.287-0.012c-0.33-0.007-0.658-0.02-0.981-0.05c-0.175-0.017-0.354-0.045-0.528-0.068  c-6.593-0.874-11.7-6.519-11.7-13.346c0-7.431,6.045-13.476,13.475-13.476c0.65,0,1.294,0.062,1.93,0.153  c-0.69,1.762-1.084,3.672-1.084,5.677l0,0c1.986-7.192,8.184-13.474,15.615-13.474c7.431,0,13.579,5.799,15.613,13.474l0,0  c0-2.004-0.394-3.916-1.084-5.677c0.636-0.091,1.278-0.153,1.929-0.153c7.431,0,13.476,6.045,13.476,13.476  C61.935,30.466,57.404,35.851,51.37,37.187z"></path><path d="M14.033,61.084h35.935v-3.307H14.033V61.084z"></path></svg></g><line x1="41" y1="1" x2="41" y2="28" stroke="#0004ff" stroke-linecap="round"></line><path fill="#0004ff" fill-rule="nonzero" d="M1.73 5.33L1.73 5.33Q1.73 5.76 1.92 6.19L1.92 6.19Q1.70 6.48 1.20 6.48Q0.70 6.48 0.35 6.12Q0 5.76 0 4.94L0 4.94Q0 3.05 1.15 1.86Q2.30 0.67 4.22 0.67L4.22 0.67Q7.39 0.67 7.99 4.13L7.99 4.13Q8.52 2.52 9.72 1.56Q10.92 0.60 12.53 0.60L12.53 0.60Q16.08 0.62 17.11 4.49L17.11 4.49Q17.59 2.74 18.83 1.67Q20.06 0.60 21.77 0.60L21.77 0.60Q24.26 0.62 25.50 2.48Q26.74 4.34 26.74 7.46L26.74 7.46L26.74 14.26Q26.74 15.65 27.30 16.49Q27.86 17.33 28.78 17.33L28.78 17.33Q31.03 17.33 31.03 12.82L31.03 12.82Q31.06 12.67 31.28 12.67Q31.51 12.67 31.63 12.74L31.63 12.74Q31.99 13.01 31.99 13.92L31.99 13.92Q31.99 15.94 31.03 17.18Q30.07 18.43 28.49 18.43L28.49 18.43Q26.18 18.43 25.32 16.82L25.32 16.82Q24.55 15.36 24.55 12.82L24.55 12.82L24.55 7.46Q24.55 1.80 21.77 1.80L21.77 1.80Q19.70 1.80 18.59 3.62Q17.47 5.45 17.47 8.47L17.47 8.47L17.47 16.82Q17.47 17.54 17.11 17.92Q16.75 18.29 16.22 18.29Q15.70 18.29 15.31 17.95L15.31 17.95L15.31 7.46Q15.31 1.80 12.53 1.80L12.53 1.80Q10.32 1.80 9.26 3.92Q8.21 6.05 8.21 9.62L8.21 9.62L8.21 12.70Q8.21 15.67 7.26 17.41Q6.31 19.15 4.40 19.15Q2.50 19.15 1.54 18.28Q0.58 17.40 0.58 15.96L0.58 15.96Q0.58 14.11 1.78 14.11L1.78 14.11Q2.06 14.11 2.28 14.24Q2.50 14.38 2.64 14.66L2.64 14.66Q2.45 15.17 2.45 16.16Q2.45 17.16 2.96 17.66Q3.48 18.17 4.27 18.17L4.27 18.17Q5.98 18.17 5.98 14.14L5.98 14.14L5.98 4.85Q5.98 3.46 5.41 2.62Q4.85 1.78 3.88 1.78Q2.90 1.78 2.32 2.56Q1.73 3.34 1.73 5.33ZM30.94 8.54Q30.94 7.82 31.30 7.45Q31.66 7.08 32.21 7.08Q32.76 7.08 33.10 7.42L33.10 7.42L33.10 14.30Q33.10 17.16 34.54 17.16L34.54 17.16Q35.83 17.16 36.66 15.79Q37.49 14.42 37.49 11.18L37.49 11.18L37.49 8.54Q37.49 7.82 37.85 7.45Q38.21 7.08 38.76 7.08Q39.31 7.08 39.65 7.42L39.65 7.42L39.65 19.61Q39.94 19.58 40.56 19.58Q41.18 19.58 41.18 20.11L41.18 20.11L41.04 20.47Q40.13 20.47 39.65 20.50L39.65 20.50L39.65 21.70Q39.65 24.17 38.53 25.60Q37.42 27.02 35.54 27.02L35.54 27.02Q34.44 27.02 33.59 26.36Q32.74 25.70 32.74 24.29L32.74 24.29Q32.74 22.46 34.03 21.38Q35.33 20.30 37.49 19.87L37.49 19.87L37.49 16.13Q36.48 18 34.25 18L34.25 18Q32.71 18 31.82 17.02Q30.94 16.03 30.94 14.18L30.94 14.18L30.94 8.54ZM33.96 24.36L33.96 24.36Q33.96 25.20 34.42 25.64Q34.87 26.09 35.52 26.09Q36.17 26.09 36.58 25.70L36.58 25.70Q37.49 24.89 37.49 20.78L37.49 20.78Q33.96 21.58 33.96 24.36ZM43.13 5.06L43.13 5.06Q43.13 5.52 43.27 5.95L43.27 5.95Q43.13 6.24 42.62 6.24Q42.12 6.24 41.76 5.88Q41.40 5.52 41.40 4.92L41.40 4.92Q41.40 3.55 42.56 2.39Q43.73 1.22 45.42 0.61Q47.11 0 48.84 0L48.84 0Q56.90 0 56.90 5.78L56.90 5.78Q56.90 7.30 55.99 8.48Q55.08 9.67 53.87 10.22Q52.66 10.78 51.50 10.78L51.50 10.78Q52.85 10.78 53.89 11.38Q54.94 11.98 55.60 12.94Q56.26 13.90 56.82 15.06Q57.38 16.22 57.94 17.40Q58.49 18.58 59.14 19.54Q59.78 20.50 60.80 21.10Q61.82 21.70 63.14 21.70L63.14 21.70Q63.74 21.70 64.13 21.46L64.13 21.46Q64.49 21.48 64.49 21.86L64.49 21.86Q64.49 22.68 62.81 22.68Q61.13 22.68 59.81 22.06Q58.49 21.43 57.67 20.42Q56.86 19.42 56.20 18.20Q55.54 16.99 54.96 15.79Q54.38 14.59 53.75 13.58Q53.11 12.58 52.13 11.95Q51.14 11.33 49.87 11.33L49.87 11.33Q49.25 11.33 49.25 10.66L49.25 10.66Q49.25 10.37 49.44 10.22Q49.63 10.08 49.87 10.08L49.87 10.08Q52.10 10.08 53.40 8.77Q54.70 7.46 54.70 5.78L54.70 5.78Q54.70 3.43 53.11 2.30Q51.53 1.18 49.16 1.18Q46.80 1.18 44.96 2.29Q43.13 3.41 43.13 5.06ZM45.91 4.37Q45.91 3.65 46.27 3.28Q46.63 2.90 47.14 2.90Q47.64 2.90 48.12 3.24L48.12 3.24L48.12 13.82Q48.12 16.34 47.17 17.83Q46.22 19.32 44.32 19.32Q42.41 19.32 41.45 18.44Q40.49 17.57 40.49 16.13L40.49 16.13Q40.49 14.28 41.69 14.28L41.69 14.28Q41.98 14.28 42.19 14.42Q42.41 14.57 42.55 14.83L42.55 14.83Q42.36 15.34 42.36 16.32Q42.36 17.30 42.88 17.82Q43.39 18.34 44.18 18.34L44.18 18.34Q45.91 18.34 45.91 15.26L45.91 15.26L45.91 4.37ZM68.95 12.53L68.95 12.53Q69.46 12.53 69.46 13.30L69.46 13.30Q69.46 15.07 68.22 16.54Q66.98 18 64.46 18Q61.94 18 60.42 16.64Q58.90 15.29 58.90 12.66Q58.90 10.03 60.24 8.56Q61.58 7.08 63.67 7.08L63.67 7.08Q65.18 7.08 65.88 7.88Q66.58 8.69 66.58 9.79L66.58 9.79Q66.58 11.59 65.08 12.78Q63.58 13.97 61.25 13.97L61.25 13.97Q61.46 15.50 62.36 16.28Q63.26 17.06 64.74 17.06Q66.22 17.06 67.40 15.95Q68.59 14.83 68.59 12.67L68.59 12.67Q68.62 12.53 68.95 12.53ZM61.18 12.86L61.18 12.86L61.18 13.08Q62.66 12.89 63.76 12.14Q64.85 11.40 64.85 9.94L64.85 9.94Q64.85 9 64.44 8.51Q64.03 8.02 63.29 8.02L63.29 8.02Q62.16 8.02 61.67 9.12Q61.18 10.22 61.18 12.86ZM78.70 13.01L78.70 13.01Q79.20 13.01 79.20 13.70Q79.20 14.40 78.91 15.10Q78.62 15.79 78.08 16.46Q77.54 17.14 76.57 17.57Q75.60 18 74.38 18L74.38 18Q71.69 18 70.16 16.64Q68.64 15.29 68.64 12.66Q68.64 10.03 69.98 8.56Q71.33 7.08 73.42 7.08L73.42 7.08Q74.93 7.08 75.62 7.88Q76.32 8.69 76.32 9.79L76.32 9.79Q76.32 10.39 75.96 10.75Q75.60 11.11 75.26 11.11L75.26 11.11Q74.64 11.11 74.45 10.82L74.45 10.82Q74.59 10.46 74.59 9.79Q74.59 9.12 74.14 8.57Q73.68 8.02 73.03 8.02L73.03 8.02Q71.90 8.02 71.41 9.12Q70.92 10.22 70.92 12.59Q70.92 14.95 71.84 16.01Q72.77 17.06 74.42 17.06Q76.08 17.06 77.21 16.04Q78.34 15.02 78.34 13.15L78.34 13.15Q78.36 13.01 78.70 13.01ZM78.53 4.73Q78.12 4.32 78.12 3.72Q78.12 3.12 78.53 2.70Q78.94 2.28 79.54 2.28Q80.14 2.28 80.56 2.70Q80.98 3.12 80.98 3.72Q80.98 4.32 80.56 4.73Q80.14 5.14 79.54 5.14Q78.94 5.14 78.53 4.73ZM78.43 8.54Q78.43 7.82 78.79 7.45Q79.15 7.08 79.70 7.08Q80.26 7.08 80.59 7.42L80.59 7.42L80.59 14.30Q80.59 15.67 81.12 16.37Q81.65 17.06 82.56 17.06Q83.47 17.06 84.26 15.96Q85.06 14.86 85.06 12.38L85.06 12.38Q85.10 12.24 85.42 12.24L85.42 12.24Q85.85 12.24 85.85 13.51L85.85 13.51Q85.85 15.36 84.84 16.68Q83.83 18 82.27 18L82.27 18Q80.33 18 79.38 16.85Q78.43 15.70 78.43 13.58L78.43 13.58L78.43 8.54ZM94.44 9.12L94.44 9.12Q95.23 10.49 95.23 12.80Q95.23 15.12 94.07 16.55Q92.90 17.98 91.03 17.98L91.03 17.98Q89.93 17.98 89.08 17.21Q88.22 16.44 88.22 14.76L88.22 14.76Q88.22 10.82 92.14 8.88L92.14 8.88Q91.51 8.02 90.40 8.02Q89.28 8.02 88.27 9.12Q87.26 10.22 87.26 12.43L87.26 12.43L87.26 26.71Q87.02 27.05 86.42 27.05Q85.82 27.05 85.46 26.68Q85.10 26.30 85.10 25.58L85.10 25.58L85.10 7.42Q85.34 7.08 85.94 7.08Q86.54 7.08 86.90 7.45Q87.26 7.82 87.26 8.54L87.26 8.54L87.26 9.07Q88.51 7.08 90.56 7.08Q92.62 7.08 93.77 8.23L93.77 8.23Q96.29 7.42 99.41 7.42L99.41 7.42Q100.06 7.42 100.06 7.94L100.06 7.94L99.91 8.30Q97.01 8.30 94.44 9.12ZM90.98 17.04L90.98 17.04Q92.95 17.04 92.95 13.13L92.95 13.13Q92.95 11.06 92.62 9.89L92.62 9.89Q89.45 11.62 89.45 14.83L89.45 14.83Q89.45 15.89 89.90 16.46Q90.36 17.04 90.98 17.04ZM108.36 12.53L108.36 12.53Q108.86 12.53 108.86 13.30L108.86 13.30Q108.86 15.07 107.63 16.54Q106.39 18 103.87 18Q101.35 18 99.83 16.64Q98.30 15.29 98.30 12.66Q98.30 10.03 99.65 8.56Q100.99 7.08 103.08 7.08L103.08 7.08Q104.59 7.08 105.29 7.88Q105.98 8.69 105.98 9.79L105.98 9.79Q105.98 11.59 104.48 12.78Q102.98 13.97 100.66 13.97L100.66 13.97Q100.87 15.50 101.77 16.28Q102.67 17.06 104.15 17.06Q105.62 17.06 106.81 15.95Q108 14.83 108 12.67L108 12.67Q108.02 12.53 108.36 12.53ZM100.58 12.86L100.58 12.86L100.58 13.08Q102.07 12.89 103.16 12.14Q104.26 11.40 104.26 9.94L104.26 9.94Q104.26 9 103.85 8.51Q103.44 8.02 102.70 8.02L102.70 8.02Q101.57 8.02 101.08 9.12Q100.58 10.22 100.58 12.86ZM112.49 13.10Q111.53 12.77 110.58 12.40Q109.63 12.02 108.98 11.33Q108.34 10.63 108.34 9.54Q108.34 8.45 109.34 7.76Q110.35 7.08 112.28 7.08Q114.22 7.08 115.31 7.75Q116.40 8.42 116.40 9.31L116.40 9.31Q116.40 9.74 116.08 10.01Q115.75 10.27 115.44 10.27L115.44 10.27Q114.84 10.27 114.65 9.98L114.65 9.98Q114.79 9.82 114.79 9.32Q114.79 8.83 114.05 8.42Q113.30 8.02 112.39 8.02Q111.48 8.02 110.88 8.35Q110.28 8.69 110.28 9.37Q110.28 10.06 110.96 10.56Q111.65 11.06 112.62 11.40Q113.59 11.74 114.56 12.12Q115.54 12.50 116.22 13.21Q116.90 13.92 116.90 14.95L116.90 14.95Q116.90 16.49 115.57 17.24Q114.24 18 112.07 18Q109.90 18 108.54 16.74Q107.18 15.48 107.18 13.61L107.18 13.61Q107.18 12.94 107.45 12.55Q107.71 12.17 108.05 12.17L108.05 12.17Q108.67 12.17 108.77 12.38L108.77 12.38L108.82 12.46Q108.67 12.82 108.67 13.34L108.67 13.34Q108.67 14.95 109.61 16.01Q110.54 17.06 112.20 17.06L112.20 17.06Q114.74 17.06 114.77 15.26L114.77 15.26Q114.77 13.90 112.49 13.10L112.49 13.10Z" transform="translate(51, 5.536)"></path></svg>